<svg width="63" height="63" viewBox="0 0 63 63" fill="none" xmlns="http://www.w3.org/2000/svg">
<path d="M18.27 0H44.73C54.81 0 63 8.19 63 18.27V44.73C63 49.5755 61.0751 54.2226 57.6488 57.6488C54.2226 61.0751 49.5755 63 44.73 63H18.27C8.19 63 0 54.81 0 44.73V18.27C0 13.4245 1.92487 8.77745 5.35116 5.35116C8.77745 1.92487 13.4245 0 18.27 0ZM17.64 6.3C14.6324 6.3 11.7481 7.49475 9.62141 9.62141C7.49475 11.7481 6.3 14.6324 6.3 17.64V45.36C6.3 51.6285 11.3715 56.7 17.64 56.7H45.36C48.3676 56.7 51.2519 55.5053 53.3786 53.3786C55.5053 51.2519 56.7 48.3676 56.7 45.36V17.64C56.7 11.3715 51.6285 6.3 45.36 6.3H17.64ZM48.0375 11.025C49.0818 11.025 50.0833 11.4398 50.8217 12.1783C51.5602 12.9167 51.975 13.9182 51.975 14.9625C51.975 16.0068 51.5602 17.0083 50.8217 17.7467C50.0833 18.4852 49.0818 18.9 48.0375 18.9C46.9932 18.9 45.9917 18.4852 45.2533 17.7467C44.5148 17.0083 44.1 16.0068 44.1 14.9625C44.1 13.9182 44.5148 12.9167 45.2533 12.1783C45.9917 11.4398 46.9932 11.025 48.0375 11.025ZM31.5 15.75C35.6772 15.75 39.6832 17.4094 42.6369 20.3631C45.5906 23.3168 47.25 27.3228 47.25 31.5C47.25 35.6772 45.5906 39.6832 42.6369 42.6369C39.6832 45.5906 35.6772 47.25 31.5 47.25C27.3228 47.25 23.3168 45.5906 20.3631 42.6369C17.4094 39.6832 15.75 35.6772 15.75 31.5C15.75 27.3228 17.4094 23.3168 20.3631 20.3631C23.3168 17.4094 27.3228 15.75 31.5 15.75ZM31.5 22.05C28.9937 22.05 26.5901 23.0456 24.8178 24.8178C23.0456 26.5901 22.05 28.9937 22.05 31.5C22.05 34.0063 23.0456 36.4099 24.8178 38.1822C26.5901 39.9544 28.9937 40.95 31.5 40.95C34.0063 40.95 36.4099 39.9544 38.1822 38.1822C39.9544 36.4099 40.95 34.0063 40.95 31.5C40.95 28.9937 39.9544 26.5901 38.1822 24.8178C36.4099 23.0456 34.0063 22.05 31.5 22.05Z" fill="white"/>
</svg>
